# Blender v3.0.0 OBJ File: 'cactussy (1).blend'
# www.blender.org
mtllib cactussy.mtl
o Cylinder
v -0.000000 -0.729548 -0.500337
v -0.000000 1.000000 -0.984067
v 0.391179 -0.729548 -0.311955
v 0.769375 1.000000 -0.613556
v 0.487793 -0.729548 0.111336
v 0.959394 1.000000 0.218976
v 0.217088 -0.729548 0.450788
v 0.426971 1.000000 0.886614
v -0.217088 -0.729548 0.450788
v -0.426971 1.000000 0.886614
v -0.487793 -0.729548 0.111336
v -0.959395 1.000000 0.218976
v -0.391179 -0.729548 -0.311955
v -0.769375 1.000000 -0.613556
v 0.000000 2.234609 -1.210985
v 0.946786 2.234609 -0.755037
v 1.180623 2.234609 0.269470
v -1.180623 2.234609 0.269470
v -0.946786 2.234609 -0.755037
v 0.000000 4.677471 -1.037691
v 0.811300 4.677471 -0.646990
v 1.011674 4.677471 0.230908
v 0.450237 4.677471 0.934928
v -0.450237 4.677471 0.934928
v -1.011674 4.677471 0.230908
v -0.811300 4.677471 -0.646990
v 0.000000 5.112054 -0.858883
v 0.671502 5.112054 -0.535505
v 0.837349 5.112054 0.191119
v 0.372655 5.112054 0.773827
v -0.372655 5.112054 0.773827
v -0.837349 5.112054 0.191119
v -0.671502 5.112054 -0.535505
v 0.000000 5.315601 -0.650880
v 0.000000 5.422470 -0.291885
v 0.228205 5.422470 -0.181987
v 0.508879 5.315601 -0.405817
v 0.284567 5.422470 0.064951
v 0.634561 5.315601 0.144835
v 0.126644 5.422470 0.262979
v 0.282407 5.315601 0.586423
v -0.126644 5.422470 0.262979
v -0.282406 5.315601 0.586423
v -0.284567 5.422470 0.064951
v -0.634561 5.315601 0.144835
v -0.228205 5.422470 -0.181987
v -0.508879 5.315601 -0.405817
v -0.000000 3.275102 -1.193026
v -0.000000 4.209929 -1.134881
v 0.887286 4.209929 -0.707587
v 0.932746 3.275102 -0.743840
v 1.106428 4.209929 0.252535
v 1.163115 3.275102 0.265473
v 0.492407 4.209929 1.022493
v -0.492407 4.209929 1.022493
v -1.106428 4.209929 0.252535
v -1.163115 3.275102 0.265473
v -0.887286 4.209929 -0.707587
v -0.932746 3.275102 -0.743840
v 0.262996 2.279331 1.444160
v 0.590432 2.073946 1.101861
v 0.597223 2.463646 1.419498
v -0.271278 2.279331 1.444160
v -0.597223 2.463646 1.419498
v -0.590432 2.073946 1.101861
v 0.257249 3.469372 1.231206
v 0.591130 3.419813 1.244455
v 0.583682 3.434662 1.086590
v -0.265532 3.469372 1.231206
v -0.583682 3.434662 1.086590
v -0.591130 3.419813 1.244455
v 0.230335 3.652707 2.298733
v 0.524204 3.676520 2.154209
v 0.207515 4.463136 2.012971
v -0.238617 3.652707 2.298733
v -0.215798 4.463136 2.012971
v -0.524204 3.676520 2.154209
v 0.225290 3.804523 1.362701
v 0.204379 4.323464 1.325908
v 0.518857 3.780710 1.524909
v -0.233573 3.804523 1.362701
v -0.518857 3.780710 1.524909
v -0.322102 4.323464 1.325908
v 0.231765 3.555496 1.307773
v 0.533500 3.569704 1.400077
v 0.236952 2.967597 2.104824
v 0.538998 3.143512 1.995997
v -0.538998 3.143512 1.995997
v -0.245235 2.967597 2.104824
v -0.349515 3.569704 1.400077
v -0.240048 3.555496 1.307773
v 0.939766 2.754855 -0.749438
v -0.000000 2.754855 -1.202006
v -0.939766 2.754855 -0.749438
v 1.171869 2.754855 0.267471
v -1.171869 2.754855 0.267472
v 0.718862 2.757393 1.355053
v 0.710248 2.754304 1.094226
v -0.710248 2.754304 1.094226
v -0.718862 2.757393 1.355053
v 0.250033 4.550664 1.669440
v 0.630971 3.728615 1.879763
v -0.630971 3.728615 1.879763
v -0.258316 4.550664 1.669440
v -0.648778 3.090815 1.601614
v 0.648778 3.090815 1.601614
v 0.365860 4.069828 2.155369
v 0.361618 4.052088 1.393548
v 0.440502 4.139639 1.774458
v -0.370001 4.069828 2.155369
v -0.420480 4.052088 1.393548
v -0.444643 4.139639 1.774458
v 0.219160 4.049556 2.248162
v -0.227699 4.040454 2.252864
v 0.216215 4.029743 1.307727
v -0.275251 4.048831 1.306250
v 0.562315 3.500437 1.352103
v 0.249974 2.525768 1.774585
v -0.568111 2.734300 1.704432
v -0.252790 3.521508 1.302241
v 0.244507 3.521508 1.302241
v 0.568111 2.734300 1.704432
v -0.258257 2.525768 1.774585
v -0.470323 3.500437 1.352103
v 0.683820 2.918325 1.466792
v -0.683820 2.918325 1.466792
vt 0.693555 0.000000
vt 0.673204 0.202395
vt 0.604767 0.202771
vt 0.658758 0.000192
vt 0.859095 0.000000
vt 0.892213 0.201823
vt 0.793505 0.201823
vt 0.808908 0.000000
vt 0.409338 0.699011
vt 0.369258 0.503714
vt 0.461881 0.510150
vt 0.456431 0.702284
vt 0.549200 0.503848
vt 0.500828 0.699079
vt 0.161762 0.707648
vt 0.139236 0.501543
vt 0.237214 0.506210
vt 0.211578 0.710021
vt 0.907875 0.346086
vt 0.786406 0.346086
vt 0.313517 0.513488
vt 0.250373 0.713721
vt 0.744262 0.000000
vt 0.772936 0.202395
vt 0.746767 0.765349
vt 0.768038 0.719516
vt 0.815834 0.708196
vt 0.854162 0.739913
vt 0.854162 0.790784
vt 0.815834 0.822501
vt 0.768038 0.811181
vt 0.789499 0.577622
vt 0.903335 0.577621
vt 0.896924 0.632554
vt 0.792837 0.632554
vt 0.579458 0.223626
vt 0.460090 0.232242
vt 0.466649 0.140722
vt 0.567350 0.133453
vt 0.663677 0.346931
vt 0.579458 0.347394
vt 0.396738 0.831849
vt 0.433652 0.880841
vt 0.425372 0.908312
vt 0.382791 0.912148
vt 0.252051 0.361140
vt 0.345949 0.370097
vt 0.350942 0.363043
vt 0.458709 0.390232
vt 0.786406 0.346931
vt 0.262945 0.130583
vt 0.149952 0.125201
vt 0.159892 0.071371
vt 0.263208 0.076292
vt 0.350942 0.138978
vt 0.343669 0.083967
vt 0.465205 0.769310
vt 0.511646 0.752372
vt 0.520527 0.829325
vt 0.475360 0.845798
vt 0.666980 0.578405
vt 0.781996 0.578405
vt 0.776272 0.633234
vt 0.671106 0.633234
vt 0.466490 0.084865
vt 0.558568 0.078218
vt 0.359831 0.133299
vt 0.368820 0.078077
vt 0.598939 0.633631
vt 0.678677 0.684242
vt 0.618945 0.684571
vt 0.786857 0.407048
vt 0.907425 0.407048
vt 0.906975 0.468010
vt 0.787307 0.468010
vt 0.664080 0.407889
vt 0.785899 0.407889
vt 0.785391 0.468848
vt 0.664482 0.468848
vt 0.090741 0.250870
vt 0.044212 0.241606
vt 0.030517 0.178025
vt 0.065117 0.174047
vt 0.579458 0.381516
vt 0.580486 0.408350
vt 0.581513 0.469305
vt 0.348446 0.309269
vt 0.255244 0.300378
vt 0.258436 0.239617
vt 0.350942 0.248442
vt 0.798851 0.683760
vt 0.885002 0.683760
vt 0.871043 0.707948
vt 0.805756 0.707948
vt 0.260864 0.026139
vt 0.327461 0.032492
vt 0.465710 0.031424
vt 0.541921 0.025922
vt 0.765721 0.684242
vt 0.175351 0.022066
vt 0.384870 0.025806
vt 0.753434 0.708196
vt 0.687470 0.708196
vt 0.678504 0.881166
vt 0.593382 0.861774
vt 0.608167 0.842156
vt 0.672675 0.856852
vt 0.464455 0.004257
vt 0.522210 0.000088
vt 0.686301 0.767388
vt 0.686301 0.797057
vt 0.663103 0.815564
vt 0.634174 0.808974
vt 0.621300 0.782249
vt 0.634174 0.755513
vt 0.663103 0.748900
vt 0.191329 0.000000
vt 0.256133 0.003087
vt 0.403193 0.000000
vt 0.724406 0.749424
vt 0.724406 0.815582
vt 0.672675 0.708196
vt 0.608167 0.722944
vt 0.579458 0.782562
vt 0.746767 0.739408
vt 0.746767 0.826708
vt 0.588054 0.578840
vt 0.244683 0.744155
vt 0.228322 0.793055
vt 0.200127 0.785264
vt 0.216039 0.737706
vt 0.353700 0.242262
vt 0.263744 0.760825
vt 0.322729 0.752603
vt 0.322729 0.793918
vt 0.261640 0.802433
vt 0.144532 0.294326
vt 0.143045 0.215104
vt 0.132783 0.373971
vt 0.100788 0.758795
vt 0.139152 0.713721
vt 0.139947 0.761775
vt 0.038189 0.758795
vt 0.000000 0.761775
vt 0.000796 0.713721
vt 0.874243 0.747231
vt 0.872840 0.708196
vt 0.891286 0.709038
vt 0.874243 0.808476
vt 0.891286 0.845799
vt 0.872840 0.846703
vt 0.558125 0.821556
vt 0.554865 0.871080
vt 0.534616 0.874037
vt 0.000000 0.180089
vt 0.006755 0.135180
vt 0.024726 0.132319
vt 0.191484 0.728037
vt 0.192846 0.715552
vt 0.226597 0.714636
vt 0.190611 0.822186
vt 0.165724 0.796610
vt 0.172342 0.778201
vt 0.415084 0.787079
vt 0.400567 0.755414
vt 0.426004 0.702284
vt 0.444707 0.779541
vt 0.102730 0.325767
vt 0.117912 0.291772
vt 0.491019 0.888720
vt 0.139947 0.773573
vt 0.158205 0.719008
vt 0.407449 0.956070
vt 0.362778 0.958623
vt 0.350942 0.913787
vt 0.068781 0.127215
vt 0.033852 0.087812
vt 0.072414 0.080381
vt 0.252279 0.716031
vt 0.099262 0.803812
vt 0.136537 0.802413
vt 0.003411 0.802413
vt 0.039715 0.803812
vt 0.221658 0.807548
vt 0.446803 0.312146
vt 0.352321 0.302653
vt 0.859990 0.832423
vt 0.854162 0.818159
vt 0.865016 0.805354
vt 0.865766 0.806902
vt 0.015955 0.261755
vt 0.552580 0.761343
vt 0.248976 0.743885
vt 0.261641 0.713721
vt 0.231731 0.795426
vt 0.105487 0.272093
vt 0.073355 0.291810
vt 0.097736 0.854919
vt 0.041241 0.854919
vt 0.407064 0.808488
vt 0.436990 0.871629
vt 0.375836 0.794091
vt 0.354161 0.848728
vt 0.109803 0.205393
vt 0.098788 0.197105
vt 0.106483 0.140669
vt 0.110029 0.109691
vt 0.448910 0.935610
vt 0.126943 0.215508
vt 0.446799 0.859479
vt 0.465204 0.856820
vt 0.263004 0.720567
vt 0.312122 0.713721
vt 0.261641 0.864499
vt 0.187550 0.849897
vt 0.465204 0.964665
vt 0.432074 1.000000
vt 0.390931 0.999503
vt 0.096315 0.171116
vt 0.560112 0.920498
vt 0.519341 0.935368
vt 0.865766 0.748642
vt 0.859990 0.711446
vt 0.048036 0.316122
vt 0.518920 0.702284
vt 0.560112 0.714365
vn 0.0000 -0.7210 -0.6929
vn 0.0000 -0.2226 -0.9749
vn 0.7622 -0.2226 -0.6078
vn 0.5417 -0.7210 -0.4320
vn 0.9513 -0.2314 0.2034
vn 0.6755 -0.7210 0.1542
vn 0.4257 -0.2435 0.8715
vn 0.3006 -0.7210 0.6243
vn -0.4257 -0.2435 0.8715
vn -0.3006 -0.7210 0.6243
vn -0.9513 -0.2314 0.2034
vn -0.6755 -0.7210 0.1542
vn 0.7793 -0.0800 -0.6215
vn 0.9776 -0.1095 0.1795
vn -0.7622 -0.2226 -0.6078
vn -0.5417 -0.7210 -0.4320
vn 0.9673 0.1414 0.2105
vn 0.7751 0.1306 -0.6181
vn 0.7491 0.2863 -0.5974
vn 0.9341 0.2863 0.2132
vn -0.7278 0.4069 0.5520
vn 0.7273 0.4069 0.5526
vn 0.4285 0.1496 0.8910
vn -0.4285 0.1496 0.8910
vn 0.0000 -0.0800 -0.9968
vn 0.9876 0.0358 0.1524
vn 0.7147 0.3596 -0.5998
vn 0.8191 0.2539 -0.5143
vn 0.9733 0.2108 0.0908
vn -0.9776 -0.1095 0.1795
vn -0.7793 -0.0800 -0.6215
vn 0.5915 -0.3624 0.7203
vn -0.9673 0.1414 0.2105
vn -0.4157 0.2863 0.8632
vn -0.9341 0.2863 0.2132
vn -0.7751 0.1306 -0.6181
vn -0.7491 0.2863 -0.5974
vn -0.2503 -0.4340 0.8654
vn 0.2448 -0.4346 0.8667
vn 0.2327 -0.0658 0.9703
vn -0.2377 -0.0662 0.9691
vn 0.0000 0.1306 -0.9914
vn 0.0000 0.2863 -0.9581
vn 0.4157 0.2863 0.8632
vn 0.0000 0.5345 -0.8452
vn 0.6608 0.5345 -0.5269
vn 0.9862 0.0152 0.1648
vn 0.7817 0.0172 -0.6234
vn 0.7812 0.0394 -0.6230
vn 0.9808 0.0727 0.1810
vn 0.0000 0.0172 -0.9998
vn -0.7817 0.0172 -0.6234
vn -0.7812 0.0394 -0.6230
vn 0.0000 0.0394 -0.9992
vn -0.9830 0.1137 0.1442
vn -0.7486 -0.2490 0.6144
vn -0.7599 0.0548 0.6477
vn -0.9806 0.1923 0.0374
vn -0.5919 -0.3629 0.7197
vn -0.9862 0.0152 0.1648
vn -0.9808 0.0727 0.1810
vn 0.8240 0.5345 0.1881
vn 0.4334 0.8323 -0.3456
vn 0.5404 0.8323 0.1233
vn -0.8240 0.5345 0.1881
vn -0.6608 0.5345 -0.5269
vn 0.3667 0.5345 0.7615
vn -0.3667 0.5345 0.7615
vn -0.4334 0.8323 -0.3456
vn 0.0000 0.8323 -0.5543
vn -0.5404 0.8323 0.1233
vn 0.2405 0.8323 0.4994
vn -0.2405 0.8323 0.4994
vn 0.1438 0.9829 -0.1147
vn 0.0000 0.9829 -0.1839
vn -0.1438 0.9829 -0.1147
vn -0.1793 0.9829 0.0409
vn -0.0798 0.9829 0.1657
vn 0.0798 0.9829 0.1657
vn 0.1793 0.9829 0.0409
vn 0.1330 0.3007 -0.9444
vn -0.1972 0.3184 -0.9272
vn -0.2645 -0.0414 -0.9635
vn 0.2372 0.0426 -0.9705
vn -0.4875 0.8672 -0.1014
vn 0.5075 0.8509 -0.1353
vn 0.4054 0.4816 -0.7770
vn -0.5153 0.4801 -0.7099
vn -0.9514 -0.0052 0.3078
vn 0.1780 -0.7757 0.6054
vn 0.7667 -0.4550 0.4529
vn -0.1826 -0.7747 0.6054
vn -0.7698 -0.4523 0.4503
vn 0.0514 0.9171 -0.3952
vn 0.7863 0.6091 -0.1036
vn -0.0591 0.9251 -0.3750
vn -0.7913 0.6085 0.0589
vn 0.7553 0.0574 0.6528
vn 0.6830 0.3814 0.6229
vn 0.2263 0.3063 0.9246
vn -0.2313 0.2996 0.9256
vn -0.6898 0.3787 0.6170
vn 0.2501 -0.0720 -0.9655
vn 0.7491 0.1506 -0.6451
vn -0.8314 0.1369 -0.5385
vn -0.8042 0.0851 -0.5882
vn -0.2515 -0.1100 -0.9616
vn 0.9814 -0.0750 0.1763
vn 0.9514 -0.0052 0.3078
vn -0.9758 -0.0628 0.2094
vn 0.9088 0.4171 -0.0056
vn -0.9178 0.3923 0.0609
vn -0.4107 0.7343 0.5404
vn 0.2495 -0.6731 0.6961
vn 0.7443 -0.3965 0.5374
vn -0.7482 -0.3933 0.5343
vn -0.2546 -0.6722 0.6952
vn -0.6567 0.3666 -0.6590
vn -0.6752 0.7159 -0.1778
vn -0.1375 0.7034 -0.6974
vn 0.7446 -0.2513 0.6183
vn 0.0991 0.6254 -0.7740
vn 0.7536 0.5452 -0.3671
vn -0.9445 0.0965 0.3139
vn 0.9791 0.0256 0.2018
vn 0.4070 0.7361 0.5407
usemtl Material
s 1
f 1/1/1 2/2/2 4/3/3 3/4/4
f 3/5/4 4/6/3 6/7/5 5/8/6
f 5/9/6 6/10/5 8/11/7 7/12/8
f 7/12/8 8/11/7 10/13/9 9/14/10
f 9/15/10 10/16/9 12/17/11 11/18/12
f 6/7/5 4/6/3 16/19/13 17/20/14
f 11/18/12 12/17/11 14/21/15 13/22/16
f 13/23/16 14/24/15 2/2/2 1/1/1
f 1/25/1 3/26/4 5/27/6 7/28/8 9/29/10 11/30/12 13/31/16
f 52/32/17 50/33/18 21/34/19 22/35/20
f 70/36/21 68/37/22 54/38/23 55/39/24
f 4/3/3 2/2/2 15/40/25 16/41/13
f 106/42/26 85/43/27 80/44/28 102/45/29
f 14/21/15 12/17/11 18/46/30 19/47/31
f 8/11/7 6/10/5 17/48/14 61/49/32
f 2/2/2 14/24/15 19/50/31 15/40/25
f 56/51/33 55/52/24 24/53/34 25/54/35
f 58/55/36 56/51/33 25/54/35 26/56/37
f 89/57/38 86/58/39 72/59/40 75/60/41
f 49/61/42 58/62/36 26/63/37 20/64/43
f 55/39/24 54/38/23 23/65/44 24/66/34
f 54/38/23 52/67/17 22/68/20 23/65/44
f 21/69/19 20/64/43 27/70/45 28/71/46
f 95/72/47 92/73/48 51/74/49 53/75/50
f 93/76/51 94/77/52 59/78/53 48/79/54
f 105/80/55 88/81/56 77/82/57 103/83/58
f 10/13/9 8/11/7 61/49/32 65/84/59
f 92/85/48 93/76/51 48/79/54 51/86/49
f 94/87/52 96/88/60 57/89/61 59/90/53
f 29/91/62 28/92/46 37/93/63 39/94/64
f 26/56/37 25/54/35 32/95/65 33/96/66
f 24/66/34 23/65/44 30/97/67 31/98/68
f 22/35/20 21/34/19 28/92/46 29/91/62
f 20/64/43 26/63/37 33/99/66 27/70/45
f 25/54/35 24/53/34 31/100/68 32/95/65
f 23/65/44 22/68/20 29/101/62 30/97/67
f 27/70/45 33/99/66 47/102/69 34/103/70
f 33/104/66 32/105/65 45/106/71 47/107/69
f 31/98/68 30/97/67 41/108/72 43/109/73
f 36/110/74 35/111/75 46/112/76 44/113/77 42/114/78 40/115/79 38/116/80
f 32/95/65 31/100/68 43/117/73 45/118/71
f 30/97/67 29/101/62 39/119/64 41/108/72
f 37/120/63 34/121/70 35/111/75 36/110/74
f 39/122/64 37/120/63 36/110/74 38/116/80
f 41/123/72 39/122/64 38/116/80 40/115/79
f 43/124/73 41/123/72 40/115/79 42/114/78
f 45/106/71 43/124/73 42/114/78 44/113/77
f 47/107/69 45/106/71 44/113/77 46/112/76
f 34/121/70 47/107/69 46/112/76 35/111/75
f 28/125/46 27/126/45 34/121/70 37/120/63
f 51/86/49 48/79/54 49/61/42 50/127/18
f 53/75/50 51/74/49 50/33/18 52/32/17
f 84/128/81 91/129/82 81/130/83 78/131/84
f 68/37/22 53/132/50 52/67/17 54/38/23
f 104/133/85 101/134/86 79/135/87 83/136/88
f 59/90/53 57/89/61 56/51/33 58/55/36
f 48/79/54 59/78/53 58/62/36 49/61/42
f 50/127/18 49/61/42 20/64/43 21/69/19
f 96/88/60 99/137/89 70/138/21 57/89/61
f 57/89/61 70/138/21 55/52/24 56/51/33
f 12/17/11 10/16/9 65/139/59 18/46/30
f 60/140/90 61/141/32 62/142/91
f 63/143/92 64/144/93 65/145/59
f 66/146/94 67/147/95 68/148/22
f 69/149/96 70/150/21 71/151/97
f 72/59/40 73/152/98 107/153/99 113/154/100
f 75/155/41 114/156/101 110/157/102 77/82/57
f 78/131/84 115/158/103 108/159/104 80/160/28
f 81/130/83 82/161/105 111/162/106 116/163/107
f 65/145/59 61/141/32 60/140/90 63/143/92
f 69/149/96 66/146/94 68/148/22 70/150/21
f 97/164/108 62/165/91 61/166/32 98/167/109
f 99/137/89 65/139/59 64/168/93 100/169/110
f 75/60/41 72/59/40 113/154/100 114/170/101
f 83/171/88 79/172/87 115/158/103 116/163/107
f 109/173/111 107/174/99 73/175/98 102/45/29
f 112/176/112 110/157/102 76/177/113 104/178/85
f 84/128/81 78/131/84 80/160/28 85/179/27
f 118/180/114 60/140/90 62/142/91 122/181/115
f 119/182/116 64/144/93 63/143/92 123/183/117
f 90/184/118 82/161/105 81/130/83 91/129/82
f 98/185/109 95/186/47 53/132/50 68/37/22
f 124/187/119 90/188/118 91/189/82 120/190/120
f 77/82/57 88/81/56 89/191/38 75/155/41
f 72/59/40 86/58/39 87/192/121 73/152/98
f 121/193/122 84/128/81 85/179/27 117/194/123
f 121/193/122 120/195/120 91/129/82 84/128/81
f 126/196/124 119/197/116 88/81/56 105/80/55
f 123/183/117 118/180/114 86/198/39 89/199/38
f 125/200/125 117/201/123 85/43/27 106/42/26
f 122/202/115 125/200/125 106/42/26 87/203/121
f 124/204/119 126/196/124 105/80/55 90/205/118
f 61/49/32 17/48/14 95/186/47 98/185/109
f 111/206/106 112/176/112 104/178/85 83/207/88
f 108/208/104 109/173/111 102/45/29 80/44/28
f 70/138/21 99/137/89 100/169/110 71/209/97
f 67/210/95 97/164/108 98/167/109 68/211/22
f 18/46/30 65/139/59 99/137/89 96/88/60
f 76/212/113 74/213/126 101/134/86 104/133/85
f 19/47/31 18/46/30 96/88/60 94/87/52
f 16/41/13 15/40/25 93/76/51 92/85/48
f 90/184/118 105/214/55 103/215/58 82/161/105
f 15/40/25 19/50/31 94/77/52 93/76/51
f 17/20/14 16/19/13 92/73/48 95/72/47
f 87/203/121 106/42/26 102/45/29 73/175/98
f 79/216/87 101/217/86 109/173/111 108/208/104
f 101/217/86 74/218/126 107/174/99 109/173/111
f 82/219/105 103/83/58 112/176/112 111/206/106
f 103/83/58 77/82/57 110/157/102 112/176/112
f 113/154/100 107/153/99 74/220/126
f 110/157/102 114/156/101 76/177/113
f 114/170/101 113/154/100 74/220/126 76/221/113
f 116/163/107 111/162/106 83/171/88
f 108/159/104 115/158/103 79/172/87
f 116/163/107 115/158/103 78/131/84 81/130/83
f 71/209/97 100/169/110 126/196/124 124/204/119
f 62/165/91 97/164/108 125/200/125 122/202/115
f 97/164/108 67/210/95 117/201/123 125/200/125
f 63/143/92 60/140/90 118/180/114 123/183/117
f 100/169/110 64/168/93 119/197/116 126/196/124
f 66/146/94 69/149/96 120/190/120 121/222/122
f 66/146/94 121/222/122 117/223/123 67/147/95
f 71/151/97 124/187/119 120/190/120 69/149/96
f 88/81/56 119/197/116 123/224/117 89/191/38
f 86/58/39 118/225/114 122/226/115 87/192/121
